
<svg xmlns="http://www.w3.org/2000/svg" viewBox="0 0 200 250" stroke="#70c041">
<path d="M46.659 101.532a4 4 0 1 0 7.806 1.746l1.406-6.285a4 4 0 0 0-2.226-4.504L44 88.031V65.698h112a4 4 0 0 0 4-4v-6.673a4 4 0 0 0-8 0v2.673H40a4 4 0 0 0-4 4v28.891c0 1.56.906 2.977 2.322 3.631l9.038 4.177-.701 3.135z"/>
<path d="M56.789 74.909a4 4 0 0 0 0 8h1.667a4 4 0 0 0 0-8h-1.667zM72.789 74.909a4 4 0 0 0 0 8h1.667a4 4 0 0 0 0-8h-1.667zM100.382 73.076l-6.01 6.01a3.997 3.997 0 0 0 0 5.656c.781.781 1.805 1.172 2.828 1.172s2.047-.391 2.828-1.172l6.01-6.01a3.997 3.997 0 0 0 0-5.656 3.997 3.997 0 0 0-5.656 0zM118.382 73.076l-6.01 6.01a3.997 3.997 0 0 0 0 5.656c.781.781 1.805 1.172 2.828 1.172s2.047-.391 2.828-1.172l6.01-6.01a3.997 3.997 0 0 0 0-5.656 3.997 3.997 0 0 0-5.656 0zM136.383 73.076l-6.01 6.01a3.997 3.997 0 0 0 0 5.656 3.988 3.988 0 0 0 2.828 1.172 3.988 3.988 0 0 0 2.828-1.172l6.01-6.01a3.997 3.997 0 0 0 0-5.656 3.997 3.997 0 0 0-5.656 0z"/>
<path d="M160 77.698h-4a4 4 0 0 0-4 4V92.12H88.341a3.997 3.997 0 0 0-3.863 2.967l-12.275 45.888H54.984a7.405 7.405 0 0 1-5.914-2.927 7.554 7.554 0 0 1-1.311-6.601l1.667-6.232h8.156a4 4 0 0 0 0-8H46.356c-.081 0-.156.019-.236.024a3.94 3.94 0 0 0-.45.045c-.123.021-.241.054-.36.087a4.09 4.09 0 0 0-.376.117 3.963 3.963 0 0 0-.363.166c-.11.055-.218.11-.322.175a3.867 3.867 0 0 0-.323.231 3.826 3.826 0 0 0-.288.238c-.095.088-.18.183-.266.281a3.902 3.902 0 0 0-.245.297 3.88 3.88 0 0 0-.212.336c-.063.108-.125.214-.178.328-.061.131-.107.268-.154.406-.027.081-.068.154-.09.237l-2.461 9.2c-1.265 4.728-.283 9.662 2.693 13.539 2.954 3.848 7.423 6.055 12.26 6.055h20.289a3.996 3.996 0 0 0 3.863-2.967l7.097-26.529h17.173c4.586 0 8.701-2.914 10.24-7.251l4.297-12.108H156a4 4 0 0 0 4-4V85.698a4 4 0 0 0 0-8zm-53.893 31.855a2.88 2.88 0 0 1-2.701 1.927H88.373l3.039-11.359h18.043l-3.348 9.432z"/>
<path d="
        M 98, 96
        m -85, 0
        a 85,85 0 1,0 170,0
        a 85,85 0 1,0 -170,0" stroke-width="16" fill="none"/>
<line x1="160" y1="160" x2="40" y2="40" stroke-width="16"/>
</svg>
